<mxfile host="65bd71144e">
    <diagram id="AmTqFOqn3dXTEwt37umZ" name="Page-1">
        <mxGraphModel dx="430" dy="782" grid="1" gridSize="10" guides="1" tooltips="1" connect="1" arrows="1" fold="1" page="1" pageScale="1" pageWidth="827" pageHeight="1169" math="0" shadow="0">
            <root>
                <mxCell id="0"/>
                <mxCell id="1" parent="0"/>
                <mxCell id="wzD5YncnkmuTWMMhhZrM-9" value="Kubewatch" style="rounded=0;whiteSpace=wrap;html=1;dashed=1;fillColor=none;align=left;verticalAlign=top;" parent="1" vertex="1">
                    <mxGeometry x="80" y="240" width="430" height="340" as="geometry"/>
                </mxCell>
                <mxCell id="wzD5YncnkmuTWMMhhZrM-3" value="Views visualisations, notifications&lt;br&gt;and configures KubeWatch&amp;nbsp;" style="edgeStyle=orthogonalEdgeStyle;rounded=0;orthogonalLoop=1;jettySize=auto;html=1;" parent="1" source="wzD5YncnkmuTWMMhhZrM-1" target="wzD5YncnkmuTWMMhhZrM-10" edge="1">
                    <mxGeometry relative="1" as="geometry"/>
                </mxCell>
                <mxCell id="wzD5YncnkmuTWMMhhZrM-1" value="KubeWatch User" style="shape=umlActor;verticalLabelPosition=bottom;verticalAlign=top;html=1;outlineConnect=0;" parent="1" vertex="1">
                    <mxGeometry x="340" y="590" width="30" height="60" as="geometry"/>
                </mxCell>
                <mxCell id="wzD5YncnkmuTWMMhhZrM-5" value="Pulls metrics&lt;br&gt;from using http" style="edgeStyle=orthogonalEdgeStyle;rounded=0;orthogonalLoop=1;jettySize=auto;html=1;" parent="1" source="wzD5YncnkmuTWMMhhZrM-2" target="wzD5YncnkmuTWMMhhZrM-4" edge="1">
                    <mxGeometry relative="1" as="geometry"/>
                </mxCell>
                <mxCell id="wzD5YncnkmuTWMMhhZrM-2" value="KubeWatch Backend" style="whiteSpace=wrap;html=1;verticalAlign=top;" parent="1" vertex="1">
                    <mxGeometry x="295" y="320" width="120" height="60" as="geometry"/>
                </mxCell>
                <mxCell id="wzD5YncnkmuTWMMhhZrM-7" value="Gathers metrics&lt;br&gt;from" style="edgeStyle=orthogonalEdgeStyle;rounded=0;orthogonalLoop=1;jettySize=auto;html=1;jumpStyle=none;targetPerimeterSpacing=0;spacingLeft=0;spacingRight=0;labelBorderColor=none;jumpSize=6;shadow=0;sketch=0;" parent="1" source="wzD5YncnkmuTWMMhhZrM-4" target="wzD5YncnkmuTWMMhhZrM-8" edge="1">
                    <mxGeometry relative="1" as="geometry">
                        <mxPoint x="616" y="350" as="sourcePoint"/>
                        <mxPoint x="605" y="480" as="targetPoint"/>
                    </mxGeometry>
                </mxCell>
                <mxCell id="wzD5YncnkmuTWMMhhZrM-4" value="Prometheus" style="whiteSpace=wrap;html=1;verticalAlign=top;" parent="1" vertex="1">
                    <mxGeometry x="545" y="320" width="120" height="60" as="geometry"/>
                </mxCell>
                <mxCell id="wzD5YncnkmuTWMMhhZrM-8" value="Kubernetes Cluster" style="sketch=0;aspect=fixed;html=1;points=[];align=center;image;fontSize=12;image=img/lib/mscae/Kubernetes.svg;" parent="1" vertex="1">
                    <mxGeometry x="580" y="480" width="50" height="48" as="geometry"/>
                </mxCell>
                <mxCell id="wzD5YncnkmuTWMMhhZrM-11" value="http/https requests" style="edgeStyle=orthogonalEdgeStyle;rounded=0;sketch=0;jumpStyle=none;jumpSize=6;orthogonalLoop=1;jettySize=auto;html=1;shadow=0;labelBorderColor=none;targetPerimeterSpacing=0;" parent="1" source="wzD5YncnkmuTWMMhhZrM-10" target="wzD5YncnkmuTWMMhhZrM-2" edge="1">
                    <mxGeometry relative="1" as="geometry"/>
                </mxCell>
                <mxCell id="wzD5YncnkmuTWMMhhZrM-10" value="KubeWatch Frontend" style="whiteSpace=wrap;html=1;verticalAlign=top;" parent="1" vertex="1">
                    <mxGeometry x="294" y="474" width="120" height="60" as="geometry"/>
                </mxCell>
                <mxCell id="wzD5YncnkmuTWMMhhZrM-13" value="Reads from&lt;br&gt;and writes to" style="edgeStyle=orthogonalEdgeStyle;rounded=0;sketch=0;jumpStyle=none;jumpSize=6;orthogonalLoop=1;jettySize=auto;html=1;shadow=0;labelBorderColor=none;sourcePerimeterSpacing=0;" parent="1" source="wzD5YncnkmuTWMMhhZrM-2" target="wzD5YncnkmuTWMMhhZrM-12" edge="1">
                    <mxGeometry relative="1" as="geometry"/>
                </mxCell>
                <mxCell id="wzD5YncnkmuTWMMhhZrM-12" value="Database" style="shape=cylinder3;whiteSpace=wrap;html=1;boundedLbl=1;backgroundOutline=1;size=15;fillColor=none;" parent="1" vertex="1">
                    <mxGeometry x="100" y="310" width="80" height="80" as="geometry"/>
                </mxCell>
            </root>
        </mxGraphModel>
    </diagram>
</mxfile>